<svg xmlns="http://www.w3.org/2000/svg" version="1.1" xmlns:xlink="http://www.w3.org/1999/xlink" xmlns:svgjs="http://svgjs.com/svgjs" width="512" height="512" x="0" y="0" viewBox="0 0 40 40" style="enable-background:new 0 0 512 512" xml:space="preserve" class=""><g><g fill="#000" fill-rule="evenodd" clip-rule="evenodd"><path d="M18.75 5.017c0-.69.56-1.25 1.25-1.25 7.347 0 13.794 4.928 15.691 12.044 1.895 7.094-1.208 14.605-7.583 18.272a16.212 16.212 0 0 1-19.61-2.6 1.25 1.25 0 0 1 1.77-1.765 13.712 13.712 0 0 0 16.59 2.2l.002-.002c5.391-3.1 8.02-9.455 6.416-15.46A13.732 13.732 0 0 0 20 6.266c-.69 0-1.25-.559-1.25-1.25zM3.75 20c0-.69.56-1.25 1.25-1.25h.017a1.25 1.25 0 1 1 0 2.5H5c-.69 0-1.25-.56-1.25-1.25zM12.917 5.833c0-.69.56-1.25 1.25-1.25h.016a1.25 1.25 0 1 1 0 2.5h-.016c-.69 0-1.25-.56-1.25-1.25zM4.883 25.633c0-.69.56-1.25 1.25-1.25h.017a1.25 1.25 0 0 1 0 2.5h-.017c-.69 0-1.25-.56-1.25-1.25zM4.883 14.217c0-.69.56-1.25 1.25-1.25h.017a1.25 1.25 0 0 1 0 2.5h-.017c-.69 0-1.25-.56-1.25-1.25zM8.117 9.367c0-.69.56-1.25 1.25-1.25h.016a1.25 1.25 0 1 1 0 2.5h-.016c-.69 0-1.25-.56-1.25-1.25z" fill="#000000" data-original="#000000" class=""></path><path d="M18.867 12.75c.69 0 1.25.56 1.25 1.25v6.23l4.149 4.134a1.25 1.25 0 0 1-1.765 1.771l-4.517-4.5a1.25 1.25 0 0 1-.367-.885V14c0-.69.56-1.25 1.25-1.25z" fill="#000000" data-original="#000000" class=""></path></g></g></svg>