<svg xmlns="http://www.w3.org/2000/svg" version="1.1" xmlns:xlink="http://www.w3.org/1999/xlink" xmlns:svgjs="http://svgjs.com/svgjs" width="512" height="512" x="0" y="0" viewBox="0 0 32 32" style="enable-background:new 0 0 512 512" xml:space="preserve" class=""><g><path fill="#000000" d="m27.35 12.963-10-9.088a2 2 0 0 0-2.7 0l-10 9.088A2 2 0 0 0 4 14.438V25.95c-.008.504.17.994.5 1.375A1.988 1.988 0 0 0 6 28h6a1 1 0 0 0 1-1v-6a1 1 0 0 1 1-1h4a1 1 0 0 1 1 1v6a1 1 0 0 0 1 1h6c.332.003.659-.079.95-.237A2.014 2.014 0 0 0 28 26V14.437a2 2 0 0 0-.65-1.474z" data-original="#000000" class=""></path></g></svg>