<svg xmlns="http://www.w3.org/2000/svg" version="1.1" xmlns:xlink="http://www.w3.org/1999/xlink" xmlns:svgjs="http://svgjs.com/svgjs" width="512" height="512" x="0" y="0" viewBox="0 0 32 32" style="enable-background:new 0 0 512 512" xml:space="preserve" class="hovered-paths"><g><path fill="#000000" fill-rule="evenodd" d="M16 5.1a.25.25 0 0 0-.169.066l-.002.002-9.993 9.08a.288.288 0 0 0-.086.198V26a.25.25 0 0 0 .25.25h6a.25.25 0 0 0 .25-.25v-6A1.75 1.75 0 0 1 14 18.25h4A1.75 1.75 0 0 1 19.75 20v6a.25.25 0 0 0 .25.25h6a.25.25 0 0 0 .25-.25V14.445a.287.287 0 0 0-.086-.196L16.17 5.168l-.002-.002A.25.25 0 0 0 16 5.1zm-1.18-1.042a1.75 1.75 0 0 1 2.36 0l.001.001 9.998 9.086.011.01a1.789 1.789 0 0 1 .56 1.27V26A1.75 1.75 0 0 1 26 27.75h-6A1.75 1.75 0 0 1 18.25 26v-6a.25.25 0 0 0-.25-.25h-4a.25.25 0 0 0-.25.25v6A1.75 1.75 0 0 1 12 27.75H6A1.75 1.75 0 0 1 4.25 26V14.425a1.788 1.788 0 0 1 .56-1.27l.01-.01 9.999-9.086z" clip-rule="evenodd" data-original="#000000" class="hovered-path"></path></g></svg>