<svg xmlns="http://www.w3.org/2000/svg" version="1.1" xmlns:xlink="http://www.w3.org/1999/xlink" xmlns:svgjs="http://svgjs.com/svgjs" width="512" height="512" x="0" y="0" viewBox="0 0 512 512" style="enable-background:new 0 0 512 512" xml:space="preserve" class=""><g><path d="M477.1 486.2h-52.6c-19.2 0-34.8-15.6-34.9-34.9V60.6c0-19.2 15.6-34.8 34.9-34.9h52.6c19.3 0 34.9 15.6 34.9 34.9v390.8c0 19.2-15.6 34.8-34.9 34.8zM424.6 58.5c-1.2 0-2.1.9-2.1 2.1v390.8c0 1.2.9 2.1 2.1 2.1h52.6c1.2 0 2.1-.9 2.1-2.1V60.6c0-1.2-.9-2.1-2.1-2.1z" fill="#000000" data-original="#000000" class=""></path><path d="M287.7 486.3c-2.2 0-4.3-.2-6.5-.6l-51.3-9.6c-18.9-3.5-31.3-21.7-27.8-40.5l71.3-381.4c3.5-18.9 21.7-31.3 40.5-27.8l51.3 9.6c18.9 3.5 31.3 21.7 27.8 40.5l-71.3 381.4c-3 16.4-17.3 28.3-34 28.4zm19.9-427.8c-.4 0-.8.1-1.1.3-.4.3-.7.7-.8 1.3l-71.3 381.4c-.2 1.1.5 2.1 1.6 2.3l51.3 9.6c1.1.2 2.1-.5 2.3-1.6l71.3-381.4c.2-1.1-.5-2.1-1.6-2.3L308 58.5z" fill="#000000" data-original="#000000" class=""></path><path d="M82.7 479.4c-4.7 0-9.3-1-13.6-2.8l-48-20.5c-17.6-7.5-25.8-27.9-18.3-45.6L155.3 53.7c7.5-17.6 28-25.8 45.6-18.3l48 20.5c17.6 7.5 25.8 28 18.3 45.6L114.7 458.3c-5.5 12.8-18.1 21.1-32 21.1zm104.6-414c-.8 0-1.5.5-1.8 1.2L32.9 423.4c-.4 1 0 2.1 1 2.6l48 20.5c1 .4 2.1 0 2.6-1L237.1 88.6c.2-.5.2-1 0-1.5s-.6-.9-1.1-1.1l-48-20.5c-.2-.1-.5-.1-.7-.1z" fill="#000000" data-original="#000000" class=""></path></g></svg>