<svg xmlns="http://www.w3.org/2000/svg" version="1.1" xmlns:xlink="http://www.w3.org/1999/xlink" xmlns:svgjs="http://svgjs.com/svgjs" width="512" height="512" x="0" y="0" viewBox="0 0 512 512" style="enable-background:new 0 0 512 512" xml:space="preserve" class=""><g><path d="M283.073 200.602c-3.91-3.9-10.239-3.9-14.149 0-3.9 3.91-3.9 10.239 0 14.139a10 10 0 0 0 14.149 0c3.9-3.9 3.9-10.23 0-14.139z" fill="#000000" data-original="#000000" class=""></path><path d="M473.971 37.982c-48.541-48.55-126.426-50.568-177.407-5.987-10.986-5.415-24.919-3.781-34.44 5.716-11.653 11.654-11.693 30.586-.126 42.297-6.887 16.608-10.268 34.59-9.89 52.661L12.21 423.295a54.33 54.33 0 0 0 3.814 72.739c19.801 19.788 51.072 21.341 72.776 3.776 11.418-9.431 10.062-7.775 290.48-239.964 18.236.378 36.119-3.017 52.673-9.882 11.859 11.709 30.759 11.422 42.288-.135 9.298-9.299 11.195-23.23 5.708-34.43 44.592-50.982 42.574-128.875-5.978-177.417zM344.85 262.387l-33.5-33.5c-3.906-3.904-10.235-3.904-14.142 0-3.905 3.905-3.905 10.236 0 14.142l32.168 32.168C88.613 474.504 86.255 475.981 76.176 484.298a34.374 34.374 0 0 1-46.013-2.405c-12.49-12.499-13.526-32.283-2.471-45.943l234.691-284.313 97.939 97.939a106390.1 106390.1 0 0 1-15.472 12.811zm34.022-22.544L272.11 133.079a110.665 110.665 0 0 1 5.431-37.52l138.853 138.852a110.617 110.617 0 0 1-37.522 5.432zm81.218-4.147c-3.889 3.899-10.227 3.904-14.139-.01L276.265 66.001c-3.901-3.902-3.901-10.247-.009-14.139a9.964 9.964 0 0 1 12.749-1.164c.029.042 171.596 171.855 172.313 172.338 2.619 3.886 2.214 9.217-1.228 12.66zm6.722-35.714L311.971 45.141c43.15-35.734 107.493-33.391 147.858 6.983 40.37 40.362 42.716 104.708 6.983 147.858z" fill="#000000" data-original="#000000" class=""></path><path d="M254.786 257.165c-11.694-11.694-30.724-11.693-42.414-.005l-.01.01-42.422 42.421c-11.721 11.723-11.725 30.695 0 42.42 11.694 11.695 30.724 11.695 42.419.001l42.428-42.427.001-.001.003-.003c11.689-11.696 11.688-30.722-.005-42.416zm-56.568 70.706c-3.898 3.898-10.239 3.898-14.138 0a9.99 9.99 0 0 1 0-14.137l22.416-22.416a29.976 29.976 0 0 0 5.866 8.263 30.043 30.043 0 0 0 8.272 5.874l-22.416 22.416zm42.429-42.429-.002.002-.002.002-.002.001a9.974 9.974 0 0 1-14.138-.008 9.972 9.972 0 0 1 .004-14.132c3.896-3.896 10.239-3.898 14.137 0 3.897 3.896 3.897 10.237.003 14.135z" fill="#000000" data-original="#000000" class=""></path></g></svg>