<svg xmlns="http://www.w3.org/2000/svg" version="1.1" xmlns:xlink="http://www.w3.org/1999/xlink" xmlns:svgjs="http://svgjs.com/svgjs" width="512" height="512" x="0" y="0" viewBox="0 0 36 36" style="enable-background:new 0 0 512 512" xml:space="preserve" class=""><g><path d="M18 26a8.009 8.009 0 0 1-8-8v-8a8 8 0 0 1 16 0v8a8.009 8.009 0 0 1-8 8zm0-22a6.006 6.006 0 0 0-6 6v8a6 6 0 0 0 12 0v-8a6.006 6.006 0 0 0-6-6zm0 26A12.013 12.013 0 0 1 6 18a1 1 0 0 1 2 0 10 10 0 0 0 20 0 1 1 0 0 1 2 0 12.013 12.013 0 0 1-12 12zm0 4a1 1 0 0 1-1-1v-4a1 1 0 0 1 2 0v4a1 1 0 0 1-1 1z" fill="#000000" data-original="#000000"></path></g></svg>