<svg xmlns="http://www.w3.org/2000/svg" version="1.1" xmlns:xlink="http://www.w3.org/1999/xlink" xmlns:svgjs="http://svgjs.com/svgjs" width="512" height="512" x="0" y="0" viewBox="0 0 101 100" style="enable-background:new 0 0 512 512" xml:space="preserve" class=""><g><g fill="#000"><path d="M82.796 8.567a4 4 0 0 0-4 4v74.867a4 4 0 0 0 4 4h6.058a4 4 0 0 0 4-4V12.567a4 4 0 0 0-4-4zM8.856 86.105V14.133c0-3.248 3.666-5.142 6.315-3.263l52.124 36.974c2.283 1.62 2.24 5.023-.085 6.584L15.086 89.426c-2.657 1.785-6.23-.12-6.23-3.32z" fill="#000000" data-original="#000000" class=""></path></g></g></svg>