<svg xmlns="http://www.w3.org/2000/svg" version="1.1" xmlns:xlink="http://www.w3.org/1999/xlink" xmlns:svgjs="http://svgjs.com/svgjs" width="512" height="512" x="0" y="0" viewBox="0 0 48 48" style="enable-background:new 0 0 512 512" xml:space="preserve" class=""><g><path d="M24 2A15 15 0 0 0 9 17v11.7l-3.32 5A4.08 4.08 0 0 0 9.07 40H18a6 6 0 0 0 12 0h8.93a4.08 4.08 0 0 0 3.39-6.33L39 28.7V17A15 15 0 0 0 24 2zm0 42a4 4 0 0 1-4-4h8a4 4 0 0 1-4 4zm16.65-9.22a2 2 0 0 1 .35 1.15A2.07 2.07 0 0 1 38.93 38H9.07A2.07 2.07 0 0 1 7 35.93a2 2 0 0 1 .35-1.15l3.48-5.23A1 1 0 0 0 11 29V17a13 13 0 0 1 26 0v12a1 1 0 0 0 .17.55z" fill="#000000" data-original="#000000" class=""></path></g></svg>