<svg xmlns="http://www.w3.org/2000/svg" version="1.1" xmlns:xlink="http://www.w3.org/1999/xlink" xmlns:svgjs="http://svgjs.com/svgjs" width="512" height="512" x="0" y="0" viewBox="0 0 24 24" style="enable-background:new 0 0 512 512" xml:space="preserve" class=""><g><path d="M15.889 1.04a1 1 45 0 0-1.415 0 1 1 45 0 0 0 1.414l7.072 7.072a1 1 45 0 0 1.414 0 1 1 45 0 0 0-1.415zm-1.414 4.242a1 1 0 0 0-1.339-.067L9.178 8.438c-.214.175-.607.267-.88.222-1.29-.211-2.417-.152-3.24.047-1.05.254-1.732.685-1.732.685a1 1 0 0 0-.165 1.547l9.9 9.9a1 1 0 0 0 1.547-.165s.43-.682.685-1.732c.199-.823.257-1.952.045-3.242-.045-.272.05-.664.224-.878l3.223-3.958a1 1 0 0 0-.067-1.339zM6.697 17.303a1 1 45 0 0-1.415 0L1.04 21.546a1 1 45 0 0 0 1.414 1 1 45 0 0 1.414 0l4.243-4.242a1 1 45 0 0 0-1.415z" paint-order="fill markers stroke" fill="#000000" data-original="#000000" class=""></path></g></svg>