<svg xmlns="http://www.w3.org/2000/svg" version="1.1" xmlns:xlink="http://www.w3.org/1999/xlink" xmlns:svgjs="http://svgjs.com/svgjs" width="512" height="512" x="0" y="0" viewBox="0 0 101 100" style="enable-background:new 0 0 512 512" xml:space="preserve" class=""><g><g fill="#000"><path d="M18.915 91.434a4 4 0 0 0 4-4V12.567a4 4 0 0 0-4-4h-6.059a4 4 0 0 0-4 4v74.867a4 4 0 0 0 4 4zM92.855 13.895v71.973c0 3.247-3.666 5.141-6.315 3.262L34.416 52.156c-2.283-1.62-2.24-5.023.085-6.583l52.124-35c2.657-1.783 6.23.12 6.23 3.322z" fill="#000000" data-original="#000000" class=""></path></g></g></svg>