<svg xmlns="http://www.w3.org/2000/svg" version="1.1" xmlns:xlink="http://www.w3.org/1999/xlink" xmlns:svgjs="http://svgjs.com/svgjs" width="512" height="512" x="0" y="0" viewBox="0 0 512 512" style="enable-background:new 0 0 512 512" xml:space="preserve" class=""><g><path d="M393.46 35.86H118.54A118.52 118.52 0 0 0 .16 154.24v125a118.52 118.52 0 0 0 118.38 118.33h39.63a24 24 0 1 0 0-48h-39.63a70.47 70.47 0 0 1-70.38-70.38V154.24a70.47 70.47 0 0 1 70.38-70.38h274.92a70.47 70.47 0 0 1 70.38 70.38v125a70.47 70.47 0 0 1-70.38 70.38h-79.52l37.6-37.6A24 24 0 1 0 317.6 278L239 356.6a24 24 0 0 0 0 33.94l78.57 78.57a24 24 0 0 0 33.94-33.94l-37.6-37.6h79.52a118.52 118.52 0 0 0 118.41-118.38V154.24A118.52 118.52 0 0 0 393.46 35.86z" data-name="ARROW 48" fill="#000000" data-original="#000000"></path></g></svg>