<svg xmlns="http://www.w3.org/2000/svg" version="1.1" xmlns:xlink="http://www.w3.org/1999/xlink" xmlns:svgjs="http://svgjs.com/svgjs" width="512" height="512" x="0" y="0" viewBox="0 0 512 512.001" style="enable-background:new 0 0 512 512" xml:space="preserve" class=""><g><path d="M361.824 344.395c-24.531 0-46.633 10.593-61.972 27.445l-137.973-85.453A83.321 83.321 0 0 0 167.605 256a83.29 83.29 0 0 0-5.726-30.387l137.973-85.457c15.34 16.852 37.441 27.45 61.972 27.45 46.211 0 83.805-37.594 83.805-83.805C445.629 37.59 408.035 0 361.824 0c-46.21 0-83.804 37.594-83.804 83.805a83.403 83.403 0 0 0 5.726 30.386l-137.969 85.454c-15.34-16.852-37.441-27.45-61.972-27.45C37.594 172.195 0 209.793 0 256c0 46.21 37.594 83.805 83.805 83.805 24.53 0 46.633-10.594 61.972-27.45l137.97 85.454a83.408 83.408 0 0 0-5.727 30.39c0 46.207 37.593 83.801 83.804 83.801s83.805-37.594 83.805-83.8c0-46.212-37.594-83.805-83.805-83.805zm-53.246-260.59c0-29.36 23.887-53.246 53.246-53.246s53.246 23.886 53.246 53.246c0 29.36-23.886 53.246-53.246 53.246s-53.246-23.887-53.246-53.246zM83.805 309.246c-29.364 0-53.25-23.887-53.25-53.246s23.886-53.246 53.25-53.246c29.36 0 53.242 23.887 53.242 53.246s-23.883 53.246-53.242 53.246zm224.773 118.95c0-29.36 23.887-53.247 53.246-53.247s53.246 23.887 53.246 53.246c0 29.36-23.886 53.246-53.246 53.246s-53.246-23.886-53.246-53.246zm0 0" fill="#000000" data-original="#000000" class=""></path></g></svg>